<svg width="20" height="23" viewBox="0 0 20 23" fill="none" xmlns="http://www.w3.org/2000/svg">
<path d="M4.27942 14.1445C7.77801 12.2225 12.1128 12.287 15.5558 14.3369L16.1544 14.6777C16.8598 15.0775 17.8271 15.6462 18.507 16.3115C18.9686 16.7634 19.4077 17.3593 19.4874 18.0889C19.5616 18.7677 19.3116 19.4098 18.7931 19.9932L18.5548 20.2393C17.3834 21.3553 15.9776 22.25 14.1593 22.25H5.34094C3.63641 22.25 2.29438 21.464 1.16809 20.4463L0.945431 20.2393C0.266557 19.5924 -0.071943 18.8646 0.0128138 18.0889C0.0925595 17.3593 0.531615 16.7634 0.993283 16.3115C1.89992 15.4243 3.31853 14.7096 3.94445 14.3369L4.27942 14.1445ZM14.7892 15.626C11.8044 13.8487 8.03677 13.793 5.00305 15.459L4.71106 15.626C3.92231 16.0956 2.779 16.6625 2.04211 17.3838C1.68198 17.7363 1.52858 18.0273 1.50402 18.252C1.48458 18.4303 1.53012 18.7242 1.98059 19.1533L2.36926 19.5059C3.28208 20.2837 4.22753 20.75 5.34094 20.75H14.1593C15.4317 20.75 16.4839 20.1401 17.5196 19.1533L17.671 18.999C17.9811 18.6528 18.0132 18.408 17.9962 18.252C17.9717 18.0273 17.8183 17.7363 17.4581 17.3838C16.9053 16.8427 16.1237 16.3885 15.4347 15.9971L14.7892 15.626ZM13.5001 6C13.5001 3.92893 11.8212 2.25 9.75012 2.25C7.67905 2.25 6.00012 3.92893 6.00012 6C6.00012 8.07107 7.67905 9.75 9.75012 9.75C11.8212 9.75 13.5001 8.07107 13.5001 6ZM15.0001 6C15.0001 8.8995 12.6496 11.25 9.75012 11.25C6.85062 11.25 4.50012 8.8995 4.50012 6C4.50012 3.1005 6.85062 0.75 9.75012 0.75C12.6496 0.75 15.0001 3.1005 15.0001 6Z" fill="#3D853C"/>
</svg>
